<svg xmlns="http://www.w3.org/2000/svg" fill="none" viewBox="0 0 240 240"><path fill="#CED2DB" d="M0 216h240v14c0 5.523-4.477 10-10 10H10c-5.523 0-10-4.477-10-10v-14ZM24 80h192v136H24V80Z"/><path fill="#0052FF" d="M48 80h144v136H48V80Z"/><path fill="#CED2DB" d="M48 0h144v80H48V0Z"/><path fill="#00D17F" d="M148 148c0 15.464-12.536 28-28 28s-28-12.536-28-28 12.536-28 28-28 28 12.536 28 28Z"/><path fill="#FFFFFF" fill-rule="evenodd" d="M152 148c0 17.673-14.327 32-32 32-17.673 0-32-14.327-32-32 0-17.673 14.327-32 32-32 17.673 0 32 14.327 32 32Zm-32 28c15.464 0 28-12.536 28-28s-12.536-28-28-28-28 12.536-28 28 12.536 28 28 28Z" clip-rule="evenodd"/><path fill="#0A0B0D" fill-rule="evenodd" d="m136.71 137.704-22.498 22.717-10.923-11.03 1.421-1.407 9.502 9.595 21.077-21.283 1.421 1.408ZM119 112V0h2v112h-2Z" clip-rule="evenodd"/><path fill="#0A0B0D" fill-rule="evenodd" d="m92.29 86.707 1.413-1.414 26.293 26.293 26.293-26.293 1.414 1.414-27.707 27.707-27.707-27.707Z" clip-rule="evenodd"/><path fill="#0A0B0D" d="M96 216h48a8 8 0 0 1-8 8h-32a8 8 0 0 1-8-8Z"/></svg>