<svg xmlns="http://www.w3.org/2000/svg" fill="none" viewBox="0 0 240 240"><path fill="#CED2DB" d="M0 216h240v14c0 5.523-4.477 10-10 10H10c-5.523 0-10-4.477-10-10v-14ZM24 80h192v136H24V80Z"/><path fill="#0052FF" d="M48 80h144v136H48V80Z"/><path fill="#CED2DB" d="M48 0h144v80H48V0Z"/><path fill="#0A0B0D" d="M96 216h48a8 8 0 0 1-8 8h-32a8 8 0 0 1-8-8Z"/><path fill="#FFD200" d="M152 148c0 17.673-14.327 32-32 32-17.673 0-32-14.327-32-32 0-17.673 14.327-32 32-32 17.673 0 32 14.327 32 32Z"/><path fill="#0A0B0D" d="M117.496 160.534V166h5.103v-5.466h-5.103Zm-7.493-18.715h3.907c0-1.149.123-2.216.368-3.201.245-.985.628-1.838 1.149-2.561a6.21 6.21 0 0 1 2.023-1.723c.797-.427 1.747-.64 2.85-.64 1.655 0 2.958.508 3.908 1.526.98 1.018 1.532 2.43 1.655 4.236.061 1.214-.077 2.249-.414 3.102a9.029 9.029 0 0 1-1.379 2.364 22.13 22.13 0 0 1-1.839 2.019 23.365 23.365 0 0 0-1.885 2.069 12.292 12.292 0 0 0-1.517 2.61c-.398.952-.628 2.117-.689 3.496v2.315h3.907v-1.921c0-.853.107-1.608.322-2.265.245-.69.552-1.313.919-1.872.399-.591.828-1.132 1.287-1.625.491-.525.981-1.034 1.472-1.526.49-.526.965-1.067 1.425-1.626a10.61 10.61 0 0 0 1.287-1.822 9.5 9.5 0 0 0 .873-2.167c.245-.82.368-1.74.368-2.757 0-1.576-.245-2.972-.736-4.187-.459-1.214-1.118-2.232-1.976-3.053a8.224 8.224 0 0 0-3.08-1.921c-1.165-.459-2.467-.689-3.908-.689-1.593 0-3.034.295-4.321.886a9.057 9.057 0 0 0-3.264 2.512c-.889 1.051-1.578 2.298-2.069 3.743-.459 1.444-.674 3.004-.643 4.678Z"/><path fill="#0A0B0D" fill-rule="evenodd" d="M200 97H40v-2h160v2Zm0 104H40v-2h160v2Z" clip-rule="evenodd"/></svg>